<?xml version="1.0" encoding="UTF-8" standalone="no"?>
<!-- Created with Inkscape (http://www.inkscape.org/) -->

<svg
   xmlns:dc="http://purl.org/dc/elements/1.1/"
   xmlns:cc="http://creativecommons.org/ns#"
   xmlns:rdf="http://www.w3.org/1999/02/22-rdf-syntax-ns#"
   xmlns:svg="http://www.w3.org/2000/svg"
   xmlns="http://www.w3.org/2000/svg"
   xmlns:xlink="http://www.w3.org/1999/xlink"
   xmlns:sodipodi="http://sodipodi.sourceforge.net/DTD/sodipodi-0.dtd"
   xmlns:inkscape="http://www.inkscape.org/namespaces/inkscape"
   width="288.4635mm"
   height="288.46448mm"
   viewBox="0 0 288.4635 288.46448"
   version="1.1"
   id="svg8"
   inkscape:version="0.92.4 5da689c313, 2019-01-14"
   sodipodi:docname="wandr_pic.svg">
  <defs
     id="defs2">
    <linearGradient
       inkscape:collect="always"
       id="linearGradient2346">
      <stop
         style="stop-color:#fd292d;stop-opacity:0.98823529"
         offset="0"
         id="stop2342" />
      <stop
         style="stop-color:#0044aa;stop-opacity:1"
         offset="1"
         id="stop2344" />
    </linearGradient>
    <clipPath
       clipPathUnits="userSpaceOnUse"
       id="clipPath199">
      <rect
         style="fill:#ff2a2a;stroke-width:0.26458332"
         id="rect201"
         width="163.5125"
         height="42.862499"
         x="119.32708"
         y="155.18333" />
    </clipPath>
    <clipPath
       clipPathUnits="userSpaceOnUse"
       id="clipPath2669">
      <path
         style="opacity:1;fill:url(#linearGradient2673);fill-opacity:1;stroke:none;stroke-width:38.81244278;stroke-linecap:round;stroke-linejoin:round;stroke-miterlimit:4;stroke-dasharray:none;stroke-opacity:1"
         d="m 209.18897,156.71916 a 20.53825,20.53825 0 0 0 -20.53825,20.53825 20.53825,20.53825 0 0 0 20.53825,20.53825 20.53825,20.53825 0 0 0 20.53825,-20.53825 20.53825,20.53825 0 0 0 -20.53825,-20.53825 z"
         id="path2671"
         inkscape:connector-curvature="0" />
    </clipPath>
    <linearGradient
       inkscape:collect="always"
       xlink:href="#linearGradient2346"
       id="linearGradient2673"
       gradientUnits="userSpaceOnUse"
       gradientTransform="matrix(1.5099713,0,0,1.5099713,-192.91417,-288.38309)"
       x1="254.80103"
       y1="323.79288"
       x2="291.10278"
       y2="277.29678" />
    <linearGradient
       inkscape:collect="always"
       xlink:href="#linearGradient2346"
       id="linearGradient5516"
       gradientUnits="userSpaceOnUse"
       gradientTransform="matrix(-2.0575124,-1.1879053,1.1879053,-2.0575124,750.68446,1400.6976)"
       x1="254.80103"
       y1="323.79288"
       x2="291.10278"
       y2="277.29678" />
    <linearGradient
       inkscape:collect="always"
       xlink:href="#linearGradient2346"
       id="linearGradient5518"
       gradientUnits="userSpaceOnUse"
       gradientTransform="matrix(0,1.8753471,-1.8753471,0,1377.067,70.925593)"
       x1="254.80103"
       y1="323.79288"
       x2="291.10278"
       y2="277.29678" />
    <linearGradient
       inkscape:collect="always"
       xlink:href="#linearGradient2346"
       id="linearGradient5520"
       gradientUnits="userSpaceOnUse"
       gradientTransform="matrix(0,1.8753471,1.8753471,0,220.33472,74.293218)"
       x1="254.80103"
       y1="323.79288"
       x2="291.10278"
       y2="277.29678" />
    <linearGradient
       inkscape:collect="always"
       xlink:href="#linearGradient2346"
       id="linearGradient1160"
       gradientUnits="userSpaceOnUse"
       gradientTransform="matrix(0,8.3702091,-8.370203,0,4342.1687,-1599.0409)"
       x1="254.80103"
       y1="323.79288"
       x2="291.10278"
       y2="277.29678" />
    <linearGradient
       inkscape:collect="always"
       xlink:href="#linearGradient2346"
       id="linearGradient1162"
       gradientUnits="userSpaceOnUse"
       gradientTransform="matrix(-9.1832581,-5.3019603,5.3019563,-9.1832648,2571.4768,4873.7467)"
       x1="254.80103"
       y1="323.79288"
       x2="291.10278"
       y2="277.29678" />
    <linearGradient
       inkscape:collect="always"
       xlink:href="#linearGradient2346"
       id="linearGradient1171"
       gradientUnits="userSpaceOnUse"
       gradientTransform="matrix(0,8.3702091,-8.370203,0,4342.1687,-1599.0409)"
       x1="254.80103"
       y1="323.79288"
       x2="291.10278"
       y2="277.29678" />
    <linearGradient
       inkscape:collect="always"
       xlink:href="#linearGradient2346"
       id="linearGradient1173"
       gradientUnits="userSpaceOnUse"
       gradientTransform="matrix(-9.1832581,-5.3019603,5.3019563,-9.1832648,2571.4768,4873.7467)"
       x1="254.80103"
       y1="323.79288"
       x2="291.10278"
       y2="277.29678" />
  </defs>
  <sodipodi:namedview
     id="base"
     pagecolor="#ffffff"
     bordercolor="#666666"
     borderopacity="1.0"
     inkscape:pageopacity="0.0"
     inkscape:pageshadow="2"
     inkscape:zoom="0.125"
     inkscape:cx="-115.46525"
     inkscape:cy="751.84407"
     inkscape:document-units="mm"
     inkscape:current-layer="layer1"
     showgrid="false"
     showborder="false"
     inkscape:window-width="1354"
     inkscape:window-height="703"
     inkscape:window-x="6"
     inkscape:window-y="26"
     inkscape:window-maximized="0"
     inkscape:object-paths="true"
     inkscape:snap-intersection-paths="true"
     inkscape:snap-global="false"
     fit-margin-top="0"
     fit-margin-left="0"
     fit-margin-right="0"
     fit-margin-bottom="0">
    <inkscape:grid
       type="xygrid"
       id="grid3225"
       originx="-443.83057"
       originy="1137.2693" />
  </sodipodi:namedview>
  <metadata
     id="metadata5">
    <rdf:RDF>
      <cc:Work
         rdf:about="">
        <dc:format>image/svg+xml</dc:format>
        <dc:type
           rdf:resource="http://purl.org/dc/dcmitype/StillImage" />
        <dc:title></dc:title>
      </cc:Work>
    </rdf:RDF>
  </metadata>
  <g
     inkscape:label="Layer 1"
     inkscape:groupmode="layer"
     id="layer1"
     transform="translate(-443.83057,-1145.8048)">
    <g
       id="g1158"
       transform="translate(-1172.9279,660.10357)"
       inkscape:export-filename="/home/nick/Pictures/wandr.png"
       inkscape:export-xdpi="96"
       inkscape:export-ydpi="96">
      <path
         inkscape:connector-curvature="0"
         id="path1152"
         d="M 1874.8397,629.93338 A 113.84939,113.84948 0 0 0 1760.9903,516.0839 113.84939,113.84948 0 0 0 1647.1409,629.93338 113.84939,113.84948 0 0 0 1760.9903,743.7829 113.84939,113.84948 0 0 0 1874.8397,629.93338 Z"
         style="opacity:1;fill:url(#linearGradient1160);fill-opacity:1;stroke:none;stroke-width:215.14854431;stroke-linecap:round;stroke-linejoin:round;stroke-miterlimit:4;stroke-dasharray:none;stroke-opacity:1" />
      <path
         inkscape:connector-curvature="0"
         id="path1154"
         d="m 1815.108,575.78721 c -0.4936,-0.0705 -3.7259,1.48627 -20.9596,9.69707 -10.6909,5.09363 -26.764,12.73746 -35.7183,16.98583 -8.9538,4.24838 -16.4762,7.96996 -16.7163,8.27061 -0.4508,0.56567 -2.3111,4.43369 -22.3637,46.50756 -6.5597,13.76339 -12.1232,25.39458 -12.3633,25.84711 -0.241,0.45253 -0.2589,0.80727 -0.045,0.7884 0.2142,-0.0179 7.5813,-3.44874 16.3699,-7.62227 8.7882,-4.17357 24.0281,-11.41052 33.8661,-16.08256 9.8379,-4.67207 19.0957,-9.09916 20.573,-9.83752 l 2.6856,-1.34278 5.4349,-11.35286 c 14.7699,-30.8513 29.1256,-61.04234 29.2555,-61.52692 0.045,-0.1647 0.1205,-0.31154 0,-0.33162 z m -68.8599,39.61148 c 0.1294,-0.075 6.6168,6.22869 14.415,14.00806 7.7978,7.77973 14.4361,14.39066 14.748,14.69439 0.6369,0.61446 1.8545,-2.7e-4 -26.0629,13.1778 -8.4431,3.9855 -18.1365,8.56679 -21.5411,10.1808 -3.4046,1.61402 -6.6592,3.17202 -7.2323,3.46137 -0.9632,0.48668 -1.0279,0.47597 -0.8623,-0.14238 0.098,-0.36822 2.4084,-5.32001 5.1328,-11.00383 2.7244,-5.68381 7.6603,-16.00346 10.9685,-22.93262 9.3894,-19.66555 10.1834,-21.29836 10.4343,-21.44328 z"
         style="fill:#f9f9f9;fill-opacity:1;stroke:#f9f9f9;stroke-width:3.78682947;stroke-linecap:round;stroke-linejoin:bevel;stroke-miterlimit:4;stroke-dasharray:none" />
      <path
         style="opacity:1;fill:url(#linearGradient1162);fill-opacity:1;stroke:none;stroke-width:272.5640564;stroke-linecap:round;stroke-linejoin:round;stroke-miterlimit:4;stroke-dasharray:none;stroke-opacity:1"
         d="m 1833.1053,505.02379 a 144.23176,144.23186 0 0 0 -197.0231,52.79392 144.23176,144.23186 0 0 0 52.7908,197.02419 144.23176,144.23186 0 0 0 197.0253,-52.79277 144.23176,144.23186 0 0 0 -52.793,-197.02534 z m -7.5153,13.01744 a 129.20122,129.20131 0 0 1 47.2907,176.49227 129.20122,129.20131 0 0 1 -176.492,47.291 129.20122,129.20131 0 0 1 -47.2911,-176.49231 129.20122,129.20131 0 0 1 176.4924,-47.29096 z"
         id="path1156"
         inkscape:connector-curvature="0" />
    </g>
    <rect
       inkscape:export-ydpi="96"
       inkscape:export-xdpi="96"
       ry="0.17863375"
       y="747.36749"
       x="3658.2219"
       height="317.5"
       width="423.33334"
       id="rect1139"
       style="opacity:1;fill:#f9f9f9;fill-opacity:1;stroke:none;stroke-width:5.04139423;stroke-linecap:round;stroke-linejoin:round;stroke-miterlimit:4;stroke-dasharray:none;stroke-opacity:1" />
    <g
       id="g1190"
       transform="matrix(0.41914713,0,0,0.41914713,2166.5066,619.05233)"
       inkscape:export-xdpi="96"
       inkscape:export-ydpi="96">
      <g
         transform="translate(2302.9334)"
         id="g1147">
        <path
           style="opacity:1;fill:url(#linearGradient1171);fill-opacity:1;stroke:none;stroke-width:215.14854431;stroke-linecap:round;stroke-linejoin:round;stroke-miterlimit:4;stroke-dasharray:none;stroke-opacity:1"
           d="M 1874.8397,629.93338 A 113.84939,113.84948 0 0 0 1760.9903,516.0839 113.84939,113.84948 0 0 0 1647.1409,629.93338 113.84939,113.84948 0 0 0 1760.9903,743.7829 113.84939,113.84948 0 0 0 1874.8397,629.93338 Z"
           id="path1141"
           inkscape:connector-curvature="0" />
        <path
           style="fill:#f9f9f9;fill-opacity:1;stroke:#f9f9f9;stroke-width:3.78682947;stroke-linecap:round;stroke-linejoin:bevel;stroke-miterlimit:4;stroke-dasharray:none"
           d="m 1815.108,575.78721 c -0.4936,-0.0705 -3.7259,1.48627 -20.9596,9.69707 -10.6909,5.09363 -26.764,12.73746 -35.7183,16.98583 -8.9538,4.24838 -16.4762,7.96996 -16.7163,8.27061 -0.4508,0.56567 -2.3111,4.43369 -22.3637,46.50756 -6.5597,13.76339 -12.1232,25.39458 -12.3633,25.84711 -0.241,0.45253 -0.2589,0.80727 -0.045,0.7884 0.2142,-0.0179 7.5813,-3.44874 16.3699,-7.62227 8.7882,-4.17357 24.0281,-11.41052 33.8661,-16.08256 9.8379,-4.67207 19.0957,-9.09916 20.573,-9.83752 l 2.6856,-1.34278 5.4349,-11.35286 c 14.7699,-30.8513 29.1256,-61.04234 29.2555,-61.52692 0.045,-0.1647 0.1205,-0.31154 0,-0.33162 z m -68.8599,39.61148 c 0.1294,-0.075 6.6168,6.22869 14.415,14.00806 7.7978,7.77973 14.4361,14.39066 14.748,14.69439 0.6369,0.61446 1.8545,-2.7e-4 -26.0629,13.1778 -8.4431,3.9855 -18.1365,8.56679 -21.5411,10.1808 -3.4046,1.61402 -6.6592,3.17202 -7.2323,3.46137 -0.9632,0.48668 -1.0279,0.47597 -0.8623,-0.14238 0.098,-0.36822 2.4084,-5.32001 5.1328,-11.00383 2.7244,-5.68381 7.6603,-16.00346 10.9685,-22.93262 9.3894,-19.66555 10.1834,-21.29836 10.4343,-21.44328 z"
           id="path1143"
           inkscape:connector-curvature="0" />
        <path
           inkscape:connector-curvature="0"
           id="path1145"
           d="m 1833.1053,505.02379 a 144.23176,144.23186 0 0 0 -197.0231,52.79392 144.23176,144.23186 0 0 0 52.7908,197.02419 144.23176,144.23186 0 0 0 197.0253,-52.79277 144.23176,144.23186 0 0 0 -52.793,-197.02534 z m -7.5153,13.01744 a 129.20122,129.20131 0 0 1 47.2907,176.49227 129.20122,129.20131 0 0 1 -176.492,47.291 129.20122,129.20131 0 0 1 -47.2911,-176.49231 129.20122,129.20131 0 0 1 176.4924,-47.29096 z"
           style="opacity:1;fill:url(#linearGradient1173);fill-opacity:1;stroke:none;stroke-width:272.5640564;stroke-linecap:round;stroke-linejoin:round;stroke-miterlimit:4;stroke-dasharray:none;stroke-opacity:1" />
      </g>
      <path
         d="m 3860.2945,881.10007 q -1.2935,1.10895 -3.5113,1.75581 -2.2183,0.7393 -5.2676,0.7393 -3.7888,0 -6.5614,-1.10895 -2.7722,-1.01651 -3.6965,-2.95719 -1.0163,-2.21785 -2.4026,-7.02329 -1.2939,-4.8054 -2.5874,-10.53492 -1.2939,-5.72952 -2.4954,-11.64386 -1.1087,-5.91434 -1.7554,-10.44253 1.2935,-1.29377 3.4189,-2.21789 2.2178,-1.01652 4.8056,-1.01652 3.2345,0 5.2675,1.4786 2.1255,1.38616 2.5874,4.89779 0.9239,7.02329 1.5711,11.64391 0.6467,4.52813 1.0163,7.48533 0.4624,2.86476 0.6472,4.43574 0.2767,1.4786 0.4619,2.40272 h 0.3705 q 0.2767,-1.47859 0.9239,-4.25092 0.7395,-2.86476 1.6634,-6.46882 0.9244,-3.60405 1.9407,-7.76259 1.0167,-4.25096 2.033,-8.4095 1.8482,-1.01651 3.6041,-1.57098 1.8482,-0.55448 4.5284,-0.55448 3.2341,0 5.5448,1.01656 2.3102,1.01651 2.9569,3.14198 1.1091,4.06614 2.1254,7.94741 1.0167,3.78888 1.8482,7.11568 0.832,3.23441 1.4787,5.82196 0.6468,2.49511 0.9239,3.9737 h 0.4624 q 1.0163,-7.11568 1.9407,-14.78588 1.0163,-7.67015 1.8482,-15.61757 1.6635,-1.01651 3.5117,-1.4786 1.8483,-0.46204 3.6965,-0.46204 3.2341,0 5.3595,1.38617 2.1254,1.38616 2.1254,4.80539 0,1.4786 -0.4619,4.43579 -0.462,2.95715 -1.2011,6.65365 -0.7396,3.69645 -1.7558,7.76259 -0.9244,4.0661 -1.9407,7.85498 -0.9243,3.78888 -1.8482,6.83847 -0.832,3.04958 -1.4787,4.713 -1.2939,1.10895 -3.9737,1.75581 -2.6802,0.7393 -5.7295,0.7393 -7.7625,0 -9.1488,-3.88132 -0.5544,-1.66337 -1.3863,-4.15848 -0.8315,-2.58755 -1.7559,-5.63713 -0.9239,-3.04959 -1.7558,-6.284 -0.8315,-3.32684 -1.3859,-6.37642 -0.6471,3.23441 -1.571,6.74607 -0.9244,3.41924 -1.9407,6.74604 -0.9243,3.23441 -1.7558,6.00677 -0.832,2.67994 -1.2939,4.34336 z"
         style="font-style:normal;font-variant:normal;font-weight:normal;font-stretch:normal;font-size:20.70486259px;line-height:1.25;font-family:'Baloo Bhaijaan';-inkscape-font-specification:'Baloo Bhaijaan';letter-spacing:0px;word-spacing:0px;fill:#000000;fill-opacity:1;stroke:none;stroke-width:2.31029201"
         id="path1149"
         inkscape:connector-curvature="0" />
      <path
         d="m 3927.0161,872.50575 q 1.5706,0 3.4188,-0.27717 1.9407,-0.36956 2.865,-0.92413 v -7.39294 l -6.6538,0.55448 q -2.5874,0.18478 -4.2509,1.10895 -1.6634,0.92412 -1.6634,2.77237 0,1.8482 1.3863,3.04958 1.4786,1.1089 4.8975,1.1089 z m -0.7396,-36.3178 q 4.9904,0 9.0564,1.01656 4.1585,1.01651 7.0235,3.14197 2.9569,2.03307 4.528,5.26748 1.571,3.14198 1.571,7.48533 v 20.70023 q 0,2.40272 -1.3863,3.97371 -1.2939,1.4786 -3.1421,2.58754 -6.0067,3.60406 -16.9109,3.60406 -4.898,0 -8.8717,-0.92412 -3.8813,-0.92413 -6.7462,-2.77237 -2.7722,-1.8482 -4.3433,-4.71296 -1.4787,-2.86481 -1.4787,-6.65365 0,-6.37642 3.7889,-9.79566 3.7889,-3.41923 11.7362,-4.25092 l 12.1062,-1.29377 v -0.64691 q 0,-2.67994 -2.4026,-3.78888 -2.3106,-1.20134 -6.7462,-1.20134 -3.5117,0 -6.8386,0.7393 -3.3265,0.7393 -6.0067,1.84824 -1.2011,-0.83173 -2.0331,-2.49511 -0.8315,-1.75585 -0.8315,-3.60405 0,-2.40273 1.1087,-3.78889 1.2015,-1.47859 3.6041,-2.49511 2.6802,-1.01656 6.2843,-1.4786 3.6961,-0.46208 6.9306,-0.46208 z"
         style="font-style:normal;font-variant:normal;font-weight:normal;font-stretch:normal;font-size:20.70486259px;line-height:1.25;font-family:'Baloo Bhaijaan';-inkscape-font-specification:'Baloo Bhaijaan';letter-spacing:0px;word-spacing:0px;fill:#000000;fill-opacity:1;stroke:none;stroke-width:2.31029201"
         id="path1151"
         inkscape:connector-curvature="0" />
      <path
         d="m 3986.529,854.02342 q 0,-2.86476 -1.6634,-4.15853 -1.5711,-1.38617 -4.3433,-1.38617 -1.8482,0 -3.6965,0.46204 -1.7558,0.46209 -3.0497,1.38621 v 32.06683 q -0.9239,0.27717 -2.9569,0.55447 -1.9407,0.27717 -4.0661,0.27717 -2.033,0 -3.6965,-0.27717 -1.5711,-0.27717 -2.6802,-1.1089 -1.1087,-0.83173 -1.7558,-2.2179 -0.5544,-1.47859 -0.5544,-3.78888 v -27.72352 q 0,-2.49511 1.0163,-4.06609 1.1091,-1.57104 2.9574,-2.86476 3.1421,-2.2179 7.8549,-3.60406 4.8056,-1.38621 10.6275,-1.38621 10.4423,0 16.0795,4.62062 5.6371,4.52818 5.6371,12.66037 v 28.92486 q -0.9239,0.27717 -2.9569,0.55447 -1.9407,0.27717 -4.0661,0.27717 -2.033,0 -3.6965,-0.27717 -1.5711,-0.27717 -2.6802,-1.1089 -1.1087,-0.83173 -1.7558,-2.2179 -0.5544,-1.47859 -0.5544,-3.78888 z"
         style="font-style:normal;font-variant:normal;font-weight:normal;font-stretch:normal;font-size:20.70486259px;line-height:1.25;font-family:'Baloo Bhaijaan';-inkscape-font-specification:'Baloo Bhaijaan';letter-spacing:0px;word-spacing:0px;fill:#000000;fill-opacity:1;stroke:none;stroke-width:2.31029201"
         id="path1153"
         inkscape:connector-curvature="0" />
      <path
         d="m 4010.0014,860.0302 q 0,-6.09917 1.8483,-10.53496 1.8482,-4.52814 5.0828,-7.48534 3.3269,-2.95719 7.6701,-4.34335 4.4356,-1.4786 9.5184,-1.4786 1.8482,0 3.6041,0.36956 1.7559,0.27717 2.865,0.7393 V 822.3261 q 0.9239,-0.27717 2.9569,-0.55443 2.033,-0.36956 4.1584,-0.36956 2.0331,0 3.6041,0.27717 1.6635,0.27717 2.7726,1.10895 1.1087,0.83169 1.6635,2.31029 0.5543,1.38616 0.5543,3.69645 v 43.80317 q 0,4.34335 -4.066,6.93086 -2.6802,1.75585 -6.931,3.04958 -4.2509,1.38621 -9.7956,1.38621 -6.0067,0 -10.8123,-1.66343 -4.7128,-1.66342 -8.0397,-4.80539 -3.2346,-3.14202 -4.9904,-7.48538 -1.6635,-4.43574 -1.6635,-9.98044 z m 26.245,-11.55148 q -4.9899,0 -7.6701,2.86476 -2.6798,2.86476 -2.6798,8.68672 0,5.72952 2.495,8.68671 2.495,2.86476 7.2082,2.86476 1.6634,0 2.9569,-0.46208 1.3863,-0.55448 2.1259,-1.20134 v -20.33058 q -1.8483,-1.10895 -4.4361,-1.10895 z"
         style="font-style:normal;font-variant:normal;font-weight:normal;font-stretch:normal;font-size:20.70486259px;line-height:1.25;font-family:'Baloo Bhaijaan';-inkscape-font-specification:'Baloo Bhaijaan';letter-spacing:0px;word-spacing:0px;fill:#000000;fill-opacity:1;stroke:none;stroke-width:2.31029201"
         id="path1155"
         inkscape:connector-curvature="0" />
      <path
         d="m 4081.8054,882.3938 q -0.9239,0.27717 -2.957,0.55447 -1.9406,0.27717 -4.066,0.27717 -2.033,0 -3.6965,-0.27717 -1.5711,-0.27717 -2.6802,-1.1089 -1.1087,-0.83173 -1.7559,-2.2179 -0.5543,-1.47859 -0.5543,-3.78888 v -27.72352 q 0,-2.12546 0.7391,-3.60405 0.832,-1.57099 2.3107,-2.77233 1.4782,-1.20138 3.6041,-2.12551 2.2178,-1.01651 4.7127,-1.75581 2.495,-0.7393 5.1752,-1.10895 2.6798,-0.46203 5.36,-0.46203 4.4356,0 7.0229,1.75581 2.5879,1.66342 2.5879,5.54469 0,1.29377 -0.3705,2.58755 -0.3704,1.20133 -0.9243,2.21789 -1.9407,0 -3.9737,0.18478 -2.033,0.18478 -3.9737,0.55443 -1.9406,0.36956 -3.6964,0.83174 -1.6635,0.36956 -2.865,0.92412 z"
         style="font-style:normal;font-variant:normal;font-weight:normal;font-stretch:normal;font-size:20.70486259px;line-height:1.25;font-family:'Baloo Bhaijaan';-inkscape-font-specification:'Baloo Bhaijaan';letter-spacing:0px;word-spacing:0px;fill:#000000;fill-opacity:1;stroke:none;stroke-width:2.31029201"
         id="path1157"
         inkscape:connector-curvature="0" />
      <path
         d="m 4096.6837,875.0009 q 0,-3.88131 2.4026,-6.46881 2.403,-2.58755 6.5615,-2.58755 4.1584,0 6.561,2.58755 2.403,2.5875 2.403,6.46881 0,3.88128 -2.403,6.46882 -2.4026,2.5875 -6.561,2.5875 -4.1585,0 -6.5615,-2.5875 -2.4026,-2.58754 -2.4026,-6.46882 z"
         style="font-style:normal;font-variant:normal;font-weight:normal;font-stretch:normal;font-size:20.70486259px;line-height:1.25;font-family:'Baloo Bhaijaan';-inkscape-font-specification:'Baloo Bhaijaan';letter-spacing:0px;word-spacing:0px;fill:#000000;fill-opacity:1;stroke:none;stroke-width:2.31029201"
         id="path1159"
         inkscape:connector-curvature="0" />
      <g
         transform="matrix(4.463282,0,0,4.4632853,2090.7307,-1893.3272)"
         style="fill:#e42c3b;fill-opacity:0.98823529"
         id="g1169">
        <path
           inkscape:connector-curvature="0"
           id="path1161"
           style="font-style:normal;font-variant:normal;font-weight:normal;font-stretch:normal;font-size:20.70486259px;line-height:1.25;font-family:'Baloo Bhaijaan';-inkscape-font-specification:'Baloo Bhaijaan';letter-spacing:0px;word-spacing:0px;fill:#e42c3b;fill-opacity:0.98823529;stroke:none;stroke-width:0.51762158"
           d="m 458.56535,621.90086 q -0.22776,0.0414 -0.68326,0.10353 -0.4348,0.0828 -0.89031,0.0828 -0.45551,0 -0.8282,-0.0621 -0.35198,-0.0621 -0.60044,-0.24845 -0.24846,-0.18635 -0.39339,-0.49692 -0.12423,-0.33128 -0.12423,-0.8489 V 608.422 q 0.22775,-0.0414 0.66256,-0.10352 0.4555,-0.0828 0.91101,-0.0828 0.45551,0 0.80749,0.0621 0.37269,0.0621 0.62115,0.24846 0.24845,0.18634 0.37268,0.51762 0.14494,0.31057 0.14494,0.82819 z" />
        <path
           inkscape:connector-curvature="0"
           id="path1163"
           style="font-style:normal;font-variant:normal;font-weight:normal;font-stretch:normal;font-size:20.70486259px;line-height:1.25;font-family:'Baloo Bhaijaan';-inkscape-font-specification:'Baloo Bhaijaan';letter-spacing:0px;word-spacing:0px;fill:#e42c3b;fill-opacity:0.98823529;stroke:none;stroke-width:0.51762158"
           d="m 465.0874,619.68544 q 0.35198,0 0.76608,-0.0621 0.4348,-0.0828 0.64185,-0.20705 v -1.65639 l -1.49075,0.12423 q -0.57974,0.0414 -0.95243,0.24846 -0.37268,0.20705 -0.37268,0.62115 0,0.41409 0.31057,0.68326 0.33128,0.24845 1.09736,0.24845 z m -0.16564,-8.13701 q 1.11806,0 2.02907,0.22776 0.93172,0.22775 1.57357,0.70396 0.66256,0.45551 1.01454,1.18018 0.35198,0.70396 0.35198,1.67709 v 4.63789 q 0,0.53833 -0.31057,0.89031 -0.28987,0.33128 -0.70396,0.57974 -1.34582,0.80749 -3.78899,0.80749 -1.09736,0 -1.98767,-0.20705 -0.8696,-0.20705 -1.51146,-0.62115 -0.62114,-0.41409 -0.97312,-1.05594 -0.33128,-0.64186 -0.33128,-1.49075 0,-1.42864 0.8489,-2.19472 0.8489,-0.76608 2.62952,-0.95242 l 2.71233,-0.28987 v -0.14494 q 0,-0.60044 -0.53832,-0.8489 -0.51763,-0.26916 -1.51146,-0.26916 -0.78678,0 -1.53216,0.16564 -0.74537,0.16564 -1.34582,0.4141 -0.26916,-0.18635 -0.4555,-0.55903 -0.18635,-0.3934 -0.18635,-0.80749 0,-0.53833 0.24846,-0.8489 0.26917,-0.33128 0.80749,-0.55903 0.60044,-0.22776 1.40793,-0.33128 0.8282,-0.10353 1.55287,-0.10353 z" />
        <path
           inkscape:connector-curvature="0"
           id="path1165"
           style="font-style:normal;font-variant:normal;font-weight:normal;font-stretch:normal;font-size:20.70486259px;line-height:1.25;font-family:'Baloo Bhaijaan';-inkscape-font-specification:'Baloo Bhaijaan';letter-spacing:0px;word-spacing:0px;fill:#e42c3b;fill-opacity:0.98823529;stroke:none;stroke-width:0.51762158"
           d="m 478.42134,615.54447 q 0,-0.64185 -0.37269,-0.93172 -0.35198,-0.31057 -0.97313,-0.31057 -0.41409,0 -0.82819,0.10352 -0.39339,0.10353 -0.68326,0.31058 v 7.18458 q -0.20705,0.0621 -0.66256,0.12423 -0.4348,0.0621 -0.91101,0.0621 -0.45551,0 -0.82819,-0.0621 -0.35199,-0.0621 -0.60045,-0.24845 -0.24845,-0.18635 -0.39339,-0.49692 -0.12423,-0.33128 -0.12423,-0.8489 v -6.21146 q 0,-0.55903 0.22776,-0.91101 0.24846,-0.35199 0.66255,-0.64185 0.70397,-0.49692 1.75992,-0.80749 1.07665,-0.31058 2.38105,-0.31058 2.33965,0 3.60265,1.03525 1.263,1.01454 1.263,2.83656 v 6.48062 q -0.20705,0.0621 -0.66256,0.12423 -0.4348,0.0621 -0.91101,0.0621 -0.45551,0 -0.8282,-0.0621 -0.35198,-0.0621 -0.60044,-0.24845 -0.24846,-0.18635 -0.39339,-0.49692 -0.12423,-0.33128 -0.12423,-0.8489 z" />
        <path
           inkscape:connector-curvature="0"
           id="path1167"
           style="font-style:normal;font-variant:normal;font-weight:normal;font-stretch:normal;font-size:20.70486259px;line-height:1.25;font-family:'Baloo Bhaijaan';-inkscape-font-specification:'Baloo Bhaijaan';letter-spacing:0px;word-spacing:0px;fill:#e42c3b;fill-opacity:0.98823529;stroke:none;stroke-width:0.51762158"
           d="m 483.68038,616.89029 q 0,-1.36652 0.4141,-2.36036 0.41409,-1.01453 1.13876,-1.67709 0.74538,-0.66256 1.71851,-0.97313 0.99383,-0.33128 2.1326,-0.33128 0.4141,0 0.80749,0.0828 0.39339,0.0621 0.64185,0.16564 v -3.35419 q 0.20705,-0.0621 0.66255,-0.12422 0.45551,-0.0828 0.93172,-0.0828 0.45551,0 0.80749,0.0621 0.37269,0.0621 0.62115,0.24846 0.24846,0.18634 0.37269,0.51762 0.12423,0.31057 0.12423,0.82819 v 9.81411 q 0,0.97313 -0.91102,1.55286 -0.60044,0.3934 -1.55286,0.68326 -0.95243,0.31058 -2.19472,0.31058 -1.34581,0 -2.42247,-0.37269 -1.05595,-0.37269 -1.80132,-1.07665 -0.72467,-0.70397 -1.11806,-1.6771 -0.37269,-0.99383 -0.37269,-2.23612 z m 5.88018,-2.58811 q -1.11806,0 -1.7185,0.64185 -0.60044,0.64185 -0.60044,1.94626 0,1.2837 0.55903,1.94626 0.55903,0.64185 1.61498,0.64185 0.37268,0 0.66255,-0.10353 0.31057,-0.12423 0.47621,-0.26916 v -4.55507 q -0.41409,-0.24846 -0.99383,-0.24846 z" />
      </g>
    </g>
    <rect
       style="opacity:1;fill:#f9f9f9;fill-opacity:1;stroke:none;stroke-width:5.04139423;stroke-linecap:round;stroke-linejoin:round;stroke-miterlimit:4;stroke-dasharray:none;stroke-opacity:1"
       id="rect1192"
       width="423.33334"
       height="317.5"
       x="4173.0898"
       y="747.36749"
       ry="0.17863375"
       inkscape:export-xdpi="96"
       inkscape:export-ydpi="96" />
    <g
       id="g6285"
       transform="matrix(0.41914647,0,0,0.41914647,3646.6436,619.05279)"
       inkscape:export-xdpi="96"
       inkscape:export-ydpi="96">
      <path
         inkscape:connector-curvature="0"
         id="path5382"
         style="font-style:normal;font-variant:normal;font-weight:normal;font-stretch:normal;font-size:20.70486259px;line-height:1.25;font-family:'Baloo Bhaijaan';-inkscape-font-specification:'Baloo Bhaijaan';letter-spacing:0px;word-spacing:0px;fill:#000000;fill-opacity:1;stroke:none;stroke-width:2.31029272"
         d="m 1557.3611,881.10008 q -1.2939,1.10895 -3.5117,1.75581 -2.2178,0.7393 -5.2675,0.7393 -3.7889,0 -6.5611,-1.10895 -2.7726,-1.01651 -3.6965,-2.95719 -1.0167,-2.21785 -2.4026,-7.02329 -1.2939,-4.8054 -2.5878,-10.53492 -1.2934,-5.72952 -2.4949,-11.64386 -1.1092,-5.91435 -1.7559,-10.44253 1.2939,-1.29377 3.4193,-2.21789 2.2178,-1.01652 4.8052,-1.01652 3.2345,0 5.2676,1.4786 2.1254,1.38616 2.5873,4.89779 0.9244,7.02329 1.5711,11.6439 0.6472,4.52814 1.0167,7.48533 0.462,2.86476 0.6468,4.43575 0.2767,1.4786 0.4619,2.40272 h 0.3705 q 0.2767,-1.4786 0.9243,-4.25092 0.7391,-2.86476 1.6635,-6.46882 0.9239,-3.60406 1.9406,-7.76259 1.0163,-4.25096 2.0331,-8.4095 1.8482,-1.01651 3.6041,-1.57098 1.8482,-0.55448 4.528,-0.55448 3.2345,0 5.5447,1.01656 2.3102,1.01651 2.9574,3.14197 1.1086,4.06615 2.1254,7.94742 1.0163,3.78888 1.8482,7.11568 0.8315,3.23441 1.4783,5.82195 0.6471,2.49511 0.9243,3.97371 h 0.462 q 1.0167,-7.11568 1.9406,-14.78588 1.0167,-7.67016 1.8483,-15.61757 1.6634,-1.01651 3.5117,-1.4786 1.8482,-0.46204 3.6965,-0.46204 3.2345,0 5.3599,1.38617 2.1254,1.38616 2.1254,4.80539 0,1.4786 -0.4619,4.43579 -0.4624,2.95715 -1.2015,6.65365 -0.7392,3.69644 -1.7559,7.76259 -0.9239,4.06609 -1.9406,7.85498 -0.9239,3.78888 -1.8483,6.83846 -0.8315,3.04959 -1.4787,4.71301 -1.2934,1.10895 -3.9736,1.75581 -2.6798,0.7393 -5.7295,0.7393 -7.7626,0 -9.1489,-3.88132 -0.5543,-1.66338 -1.3858,-4.15849 -0.832,-2.58754 -1.7559,-5.63712 -0.9243,-3.04959 -1.7558,-6.284 -0.832,-3.32684 -1.3863,-6.37643 -0.6468,3.23441 -1.5711,6.74608 -0.9239,3.41923 -1.9407,6.74603 -0.9239,3.23441 -1.7558,6.00678 -0.8315,2.67994 -1.2935,4.34336 z" />
      <path
         inkscape:connector-curvature="0"
         id="path5384"
         style="font-style:normal;font-variant:normal;font-weight:normal;font-stretch:normal;font-size:20.70486259px;line-height:1.25;font-family:'Baloo Bhaijaan';-inkscape-font-specification:'Baloo Bhaijaan';letter-spacing:0px;word-spacing:0px;fill:#000000;fill-opacity:1;stroke:none;stroke-width:2.31029272"
         d="m 1624.0823,872.50576 q 1.5711,0 3.4194,-0.27717 1.9406,-0.36956 2.8645,-0.92413 v -7.39294 l -6.6534,0.55448 q -2.5878,0.18478 -4.2509,1.10894 -1.6634,0.92413 -1.6634,2.77237 0,1.8482 1.3858,3.04959 1.4787,1.1089 4.898,1.1089 z m -0.7391,-36.3178 q 4.99,0 9.056,1.01656 4.1589,1.01651 7.0235,3.14197 2.9573,2.03307 4.5284,5.26748 1.5706,3.14198 1.5706,7.48533 v 20.70023 q 0,2.40272 -1.3858,3.97371 -1.2939,1.47859 -3.1422,2.58754 -6.0067,3.60406 -16.9114,3.60406 -4.8975,0 -8.8716,-0.92412 -3.8813,-0.92413 -6.7458,-2.77237 -2.7726,-1.84821 -4.3433,-4.71297 -1.4787,-2.8648 -1.4787,-6.65364 0,-6.37643 3.7889,-9.79566 3.7889,-3.41923 11.7362,-4.25092 l 12.1058,-1.29377 v -0.64691 q 0,-2.67994 -2.4026,-3.78889 -2.3102,-1.20133 -6.7458,-1.20133 -3.5117,0 -6.8386,0.7393 -3.327,0.73929 -6.0067,1.84824 -1.2015,-0.83173 -2.033,-2.49511 -0.832,-1.75585 -0.832,-3.60406 0,-2.40272 1.1091,-3.78888 1.2011,-1.4786 3.6041,-2.49511 2.6798,-1.01656 6.2839,-1.4786 3.6965,-0.46208 6.931,-0.46208 z" />
      <path
         inkscape:connector-curvature="0"
         id="path5386"
         style="font-style:normal;font-variant:normal;font-weight:normal;font-stretch:normal;font-size:20.70486259px;line-height:1.25;font-family:'Baloo Bhaijaan';-inkscape-font-specification:'Baloo Bhaijaan';letter-spacing:0px;word-spacing:0px;fill:#000000;fill-opacity:1;stroke:none;stroke-width:2.31029272"
         d="m 1683.5958,854.02343 q 0,-2.86476 -1.6635,-4.15854 -1.5711,-1.38616 -4.3437,-1.38616 -1.8482,0 -3.6964,0.46204 -1.7555,0.46208 -3.0494,1.38621 v 32.06683 q -0.9243,0.27717 -2.9573,0.55447 -1.9407,0.27717 -4.0661,0.27717 -2.033,0 -3.6965,-0.27717 -1.5711,-0.27717 -2.6797,-1.1089 -1.1092,-0.83174 -1.7559,-2.2179 -0.5543,-1.4786 -0.5543,-3.78888 v -27.72352 q 0,-2.49511 1.0163,-4.0661 1.1091,-1.57103 2.9573,-2.86476 3.1417,-2.21789 7.855,-3.60405 4.8051,-1.38621 10.627,-1.38621 10.4428,0 16.0799,4.62062 5.6372,4.52818 5.6372,12.66037 v 28.92486 q -0.9244,0.27717 -2.9574,0.55447 -1.9407,0.27717 -4.0661,0.27717 -2.033,0 -3.6965,-0.27717 -1.571,-0.27717 -2.6797,-1.1089 -1.1091,-0.83174 -1.7559,-2.2179 -0.5543,-1.4786 -0.5543,-3.78888 z" />
      <path
         inkscape:connector-curvature="0"
         id="path5388"
         style="font-style:normal;font-variant:normal;font-weight:normal;font-stretch:normal;font-size:20.70486259px;line-height:1.25;font-family:'Baloo Bhaijaan';-inkscape-font-specification:'Baloo Bhaijaan';letter-spacing:0px;word-spacing:0px;fill:#000000;fill-opacity:1;stroke:none;stroke-width:2.31029272"
         d="m 1707.0682,860.0302 q 0,-6.09916 1.8482,-10.53496 1.8483,-4.52813 5.0828,-7.48533 3.3265,-2.95719 7.6702,-4.34335 4.4356,-1.4786 9.5184,-1.4786 1.8482,0 3.6041,0.36956 1.7554,0.27717 2.8645,0.7393 v -14.97071 q 0.9244,-0.27717 2.9574,-0.55443 2.033,-0.36956 4.1584,-0.36956 2.0331,0 3.6042,0.27717 1.6634,0.27717 2.7721,1.10895 1.1091,0.83169 1.6635,2.31029 0.5543,1.38616 0.5543,3.69644 v 43.80318 q 0,4.34335 -4.066,6.93085 -2.6798,1.75586 -6.9306,3.04959 -4.2513,1.3862 -9.7961,1.3862 -6.0066,0 -10.8118,-1.66342 -4.7132,-1.66342 -8.0402,-4.80539 -3.2341,-3.14202 -4.9899,-7.48538 -1.6635,-4.43575 -1.6635,-9.98044 z m 26.245,-11.55147 q -4.9904,0 -7.6701,2.86476 -2.6802,2.86476 -2.6802,8.68671 0,5.72952 2.4954,8.68672 2.495,2.86476 7.2077,2.86476 1.6635,0 2.9574,-0.46209 1.3863,-0.55447 2.1254,-1.20133 v -20.33058 q -1.8482,-1.10895 -4.4356,-1.10895 z" />
      <path
         inkscape:connector-curvature="0"
         id="path5390"
         style="font-style:normal;font-variant:normal;font-weight:normal;font-stretch:normal;font-size:20.70486259px;line-height:1.25;font-family:'Baloo Bhaijaan';-inkscape-font-specification:'Baloo Bhaijaan';letter-spacing:0px;word-spacing:0px;fill:#000000;fill-opacity:1;stroke:none;stroke-width:2.31029272"
         d="m 1778.8722,882.39381 q -0.9244,0.27717 -2.9574,0.55447 -1.9406,0.27717 -4.066,0.27717 -2.0331,0 -3.6965,-0.27717 -1.5711,-0.27717 -2.6798,-1.1089 -1.1091,-0.83174 -1.7558,-2.2179 -0.5544,-1.4786 -0.5544,-3.78888 v -27.72352 q 0,-2.12546 0.7391,-3.60406 0.8316,-1.57098 2.3102,-2.77232 1.4787,-1.20138 3.6041,-2.12551 2.2178,-1.01651 4.7133,-1.75581 2.4949,-0.7393 5.1747,-1.10895 2.6802,-0.46204 5.36,-0.46204 4.4356,0 7.0234,1.75582 2.5874,1.66342 2.5874,5.54469 0,1.29377 -0.3705,2.58755 -0.3704,1.20133 -0.9239,2.21789 -1.9406,0 -3.9737,0.18478 -2.0334,0.18478 -3.9741,0.55443 -1.9406,0.36956 -3.6965,0.83173 -1.663,0.36956 -2.8645,0.92413 z" />
      <path
         inkscape:connector-curvature="0"
         id="path5392"
         style="font-style:normal;font-variant:normal;font-weight:normal;font-stretch:normal;font-size:20.70486259px;line-height:1.25;font-family:'Baloo Bhaijaan';-inkscape-font-specification:'Baloo Bhaijaan';letter-spacing:0px;word-spacing:0px;fill:#000000;fill-opacity:1;stroke:none;stroke-width:2.31029272"
         d="m 1793.7506,875.00091 q 0,-3.88132 2.4025,-6.46882 2.4026,-2.58754 6.5611,-2.58754 4.1589,0 6.5614,2.58754 2.4026,2.5875 2.4026,6.46882 0,3.88127 -2.4026,6.46882 -2.4025,2.5875 -6.5614,2.5875 -4.1585,0 -6.5611,-2.5875 -2.4025,-2.58755 -2.4025,-6.46882 z" />
      <g
         id="g5402"
         style="fill:#d52a43;fill-opacity:0.99215686"
         transform="matrix(4.4632852,0,0,4.4632852,-212.20393,-1893.3271)">
        <path
           d="m 458.56535,621.90086 q -0.22776,0.0414 -0.68326,0.10353 -0.4348,0.0828 -0.89031,0.0828 -0.45551,0 -0.8282,-0.0621 -0.35198,-0.0621 -0.60044,-0.24845 -0.24846,-0.18635 -0.39339,-0.49692 -0.12423,-0.33128 -0.12423,-0.8489 V 608.422 q 0.22775,-0.0414 0.66256,-0.10352 0.4555,-0.0828 0.91101,-0.0828 0.45551,0 0.80749,0.0621 0.37269,0.0621 0.62115,0.24846 0.24845,0.18634 0.37268,0.51762 0.14494,0.31057 0.14494,0.82819 z"
           style="font-style:normal;font-variant:normal;font-weight:normal;font-stretch:normal;font-size:20.70486259px;line-height:1.25;font-family:'Baloo Bhaijaan';-inkscape-font-specification:'Baloo Bhaijaan';letter-spacing:0px;word-spacing:0px;fill:#d52a43;fill-opacity:0.99215686;stroke:none;stroke-width:0.51762158"
           id="path5394"
           inkscape:connector-curvature="0" />
        <path
           d="m 465.0874,619.68544 q 0.35198,0 0.76608,-0.0621 0.4348,-0.0828 0.64185,-0.20705 v -1.65639 l -1.49075,0.12423 q -0.57974,0.0414 -0.95243,0.24846 -0.37268,0.20705 -0.37268,0.62115 0,0.41409 0.31057,0.68326 0.33128,0.24845 1.09736,0.24845 z m -0.16564,-8.13701 q 1.11806,0 2.02907,0.22776 0.93172,0.22775 1.57357,0.70396 0.66256,0.45551 1.01454,1.18018 0.35198,0.70396 0.35198,1.67709 v 4.63789 q 0,0.53833 -0.31057,0.89031 -0.28987,0.33128 -0.70396,0.57974 -1.34582,0.80749 -3.78899,0.80749 -1.09736,0 -1.98767,-0.20705 -0.8696,-0.20705 -1.51146,-0.62115 -0.62114,-0.41409 -0.97312,-1.05594 -0.33128,-0.64186 -0.33128,-1.49075 0,-1.42864 0.8489,-2.19472 0.8489,-0.76608 2.62952,-0.95242 l 2.71233,-0.28987 v -0.14494 q 0,-0.60044 -0.53832,-0.8489 -0.51763,-0.26916 -1.51146,-0.26916 -0.78678,0 -1.53216,0.16564 -0.74537,0.16564 -1.34582,0.4141 -0.26916,-0.18635 -0.4555,-0.55903 -0.18635,-0.3934 -0.18635,-0.80749 0,-0.53833 0.24846,-0.8489 0.26917,-0.33128 0.80749,-0.55903 0.60044,-0.22776 1.40793,-0.33128 0.8282,-0.10353 1.55287,-0.10353 z"
           style="font-style:normal;font-variant:normal;font-weight:normal;font-stretch:normal;font-size:20.70486259px;line-height:1.25;font-family:'Baloo Bhaijaan';-inkscape-font-specification:'Baloo Bhaijaan';letter-spacing:0px;word-spacing:0px;fill:#d52a43;fill-opacity:0.99215686;stroke:none;stroke-width:0.51762158"
           id="path5396"
           inkscape:connector-curvature="0" />
        <path
           d="m 478.42134,615.54447 q 0,-0.64185 -0.37269,-0.93172 -0.35198,-0.31057 -0.97313,-0.31057 -0.41409,0 -0.82819,0.10352 -0.39339,0.10353 -0.68326,0.31058 v 7.18458 q -0.20705,0.0621 -0.66256,0.12423 -0.4348,0.0621 -0.91101,0.0621 -0.45551,0 -0.82819,-0.0621 -0.35199,-0.0621 -0.60045,-0.24845 -0.24845,-0.18635 -0.39339,-0.49692 -0.12423,-0.33128 -0.12423,-0.8489 v -6.21146 q 0,-0.55903 0.22776,-0.91101 0.24846,-0.35199 0.66255,-0.64185 0.70397,-0.49692 1.75992,-0.80749 1.07665,-0.31058 2.38105,-0.31058 2.33965,0 3.60265,1.03525 1.263,1.01454 1.263,2.83656 v 6.48062 q -0.20705,0.0621 -0.66256,0.12423 -0.4348,0.0621 -0.91101,0.0621 -0.45551,0 -0.8282,-0.0621 -0.35198,-0.0621 -0.60044,-0.24845 -0.24846,-0.18635 -0.39339,-0.49692 -0.12423,-0.33128 -0.12423,-0.8489 z"
           style="font-style:normal;font-variant:normal;font-weight:normal;font-stretch:normal;font-size:20.70486259px;line-height:1.25;font-family:'Baloo Bhaijaan';-inkscape-font-specification:'Baloo Bhaijaan';letter-spacing:0px;word-spacing:0px;fill:#d52a43;fill-opacity:0.99215686;stroke:none;stroke-width:0.51762158"
           id="path5398"
           inkscape:connector-curvature="0" />
        <path
           d="m 483.68038,616.89029 q 0,-1.36652 0.4141,-2.36036 0.41409,-1.01453 1.13876,-1.67709 0.74538,-0.66256 1.71851,-0.97313 0.99383,-0.33128 2.1326,-0.33128 0.4141,0 0.80749,0.0828 0.39339,0.0621 0.64185,0.16564 v -3.35419 q 0.20705,-0.0621 0.66255,-0.12422 0.45551,-0.0828 0.93172,-0.0828 0.45551,0 0.80749,0.0621 0.37269,0.0621 0.62115,0.24846 0.24846,0.18634 0.37269,0.51762 0.12423,0.31057 0.12423,0.82819 v 9.81411 q 0,0.97313 -0.91102,1.55286 -0.60044,0.3934 -1.55286,0.68326 -0.95243,0.31058 -2.19472,0.31058 -1.34581,0 -2.42247,-0.37269 -1.05595,-0.37269 -1.80132,-1.07665 -0.72467,-0.70397 -1.11806,-1.6771 -0.37269,-0.99383 -0.37269,-2.23612 z m 5.88018,-2.58811 q -1.11806,0 -1.7185,0.64185 -0.60044,0.64185 -0.60044,1.94626 0,1.2837 0.55903,1.94626 0.55903,0.64185 1.61498,0.64185 0.37268,0 0.66255,-0.10353 0.31057,-0.12423 0.47621,-0.26916 v -4.55507 q -0.41409,-0.24846 -0.99383,-0.24846 z"
           style="font-style:normal;font-variant:normal;font-weight:normal;font-stretch:normal;font-size:20.70486259px;line-height:1.25;font-family:'Baloo Bhaijaan';-inkscape-font-specification:'Baloo Bhaijaan';letter-spacing:0px;word-spacing:0px;fill:#d52a43;fill-opacity:0.99215686;stroke:none;stroke-width:0.51762158"
           id="path5400"
           inkscape:connector-curvature="0" />
      </g>
      <g
         transform="matrix(4.4632852,0,0,4.4632852,-779.0412,-1377.9663)"
         id="g5412">
        <path
           style="opacity:1;fill:url(#linearGradient5516);fill-opacity:1;stroke:none;stroke-width:61.0680542;stroke-linecap:round;stroke-linejoin:round;stroke-miterlimit:4;stroke-dasharray:none;stroke-opacity:1"
           d="m 585.25207,421.88433 a 32.315179,32.315179 0 0 0 -44.14312,11.82849 32.315179,32.315179 0 0 0 11.82778,44.14331 32.315179,32.315179 0 0 0 44.14357,-11.82823 32.315179,32.315179 0 0 0 -11.82823,-44.14357 z m -1.68388,2.91656 a 28.947581,28.947581 0 0 1 10.59555,39.54313 28.947581,28.947581 0 0 1 -39.54313,10.59556 28.947581,28.947581 0 0 1 -10.59555,-39.54314 28.947581,28.947581 0 0 1 39.54313,-10.59555 z"
           id="path5404"
           inkscape:connector-curvature="0" />
        <g
           transform="translate(-229.65833,-123.825)"
           id="g5410">
          <path
             style="opacity:1;fill:url(#linearGradient5518);fill-opacity:1;stroke:none;stroke-width:48.20409393;stroke-linecap:round;stroke-linejoin:round;stroke-miterlimit:4;stroke-dasharray:none;stroke-opacity:1"
             d="m 824.26095,570.32775 c 0,-14.08768 -24.55997,6.7828 -38.64765,6.7828 -14.08768,0 -11.28927,-14.58501 -11.28927,-0.49733 -10e-6,14.08768 10.34124,19.22254 24.42892,19.22254 14.08768,0 25.50801,-11.42033 25.508,-25.50801 z"
             id="path5406"
             inkscape:connector-curvature="0"
             sodipodi:nodetypes="sssss" />
          <path
             sodipodi:nodetypes="sssss"
             inkscape:connector-curvature="0"
             id="path5408"
             d="m 773.14077,573.69535 c 0,-14.08768 24.8907,5.9229 38.97838,5.9229 14.08768,0 11.78037,-19.91704 12.03762,-5.9229 0.25892,14.0853 -11.42032,25.50801 -25.508,25.50801 -14.08768,0 -25.50801,-11.42033 -25.508,-25.50801 z"
             style="opacity:1;fill:url(#linearGradient5520);fill-opacity:1;stroke:none;stroke-width:48.20409393;stroke-linecap:round;stroke-linejoin:round;stroke-miterlimit:4;stroke-dasharray:none;stroke-opacity:1" />
        </g>
      </g>
    </g>
  </g>
</svg>
